<?xml version="1.0" encoding="UTF-8" standalone="no"?>
<!DOCTYPE svg PUBLIC "-//W3C//DTD SVG 1.1//EN" "http://www.w3.org/Graphics/SVG/1.1/DTD/svg11.dtd">
<svg width="100%" height="100%" viewBox="0 0 237 165" version="1.1" xmlns="http://www.w3.org/2000/svg" xmlns:xlink="http://www.w3.org/1999/xlink" xml:space="preserve" xmlns:serif="http://www.serif.com/" style="fill-rule:evenodd;clip-rule:evenodd;stroke-linejoin:round;stroke-miterlimit:2;">
    <g transform="matrix(1,0,0,1,-30.75,-70)">
        <g transform="matrix(1.44619,0,0,1.44619,24.4565,-77.5455)">
            <path d="M67.553,172.156L74.764,171.022C75.169,173.912 76.297,176.127 78.147,177.667C79.998,179.206 82.584,179.976 85.906,179.976C89.256,179.976 91.74,179.294 93.361,177.93C94.982,176.566 95.792,174.966 95.792,173.129C95.792,171.481 95.076,170.185 93.645,169.239C92.645,168.591 90.16,167.767 86.19,166.768C80.842,165.417 77.135,164.249 75.068,163.263C73.002,162.277 71.435,160.913 70.368,159.171C69.301,157.429 68.768,155.504 68.768,153.398C68.768,151.48 69.207,149.704 70.085,148.07C70.963,146.436 72.158,145.078 73.67,143.998C74.805,143.161 76.351,142.452 78.309,141.871C80.268,141.29 82.368,141 84.61,141C87.986,141 90.95,141.486 93.503,142.458C96.055,143.431 97.939,144.747 99.155,146.409C100.37,148.07 101.208,150.291 101.667,153.073L94.536,154.046C94.212,151.831 93.273,150.102 91.72,148.86C90.167,147.617 87.973,146.996 85.136,146.996C81.787,146.996 79.397,147.55 77.965,148.657C76.534,149.765 75.818,151.061 75.818,152.547C75.818,153.492 76.115,154.343 76.709,155.099C77.303,155.883 78.235,156.531 79.505,157.044C80.234,157.314 82.381,157.935 85.947,158.908C91.106,160.285 94.705,161.413 96.744,162.291C98.784,163.169 100.384,164.445 101.545,166.12C102.707,167.794 103.288,169.874 103.288,172.359C103.288,174.79 102.578,177.079 101.16,179.226C99.742,181.374 97.696,183.035 95.022,184.21C92.348,185.385 89.323,185.972 85.947,185.972C80.356,185.972 76.095,184.811 73.164,182.488C70.233,180.165 68.363,176.721 67.553,172.156Z" style="fill:rgb(53,158,251);fill-rule:nonzero;"/>
        </g>
        <g transform="matrix(1.44619,0,0,1.44619,111.8,-77.5455)">
            <path d="M98.547,169.239L105.718,170.171C104.935,175.114 102.93,178.983 99.702,181.779C96.474,184.575 92.51,185.972 87.81,185.972C81.922,185.972 77.189,184.048 73.61,180.199C70.031,176.35 68.241,170.833 68.241,163.648C68.241,159.002 69.011,154.937 70.551,151.453C72.09,147.968 74.433,145.355 77.58,143.613C80.727,141.871 84.151,141 87.851,141C92.524,141 96.346,142.181 99.317,144.545C102.288,146.908 104.192,150.264 105.03,154.613L97.939,155.707C97.264,152.817 96.069,150.643 94.354,149.184C92.639,147.725 90.566,146.996 88.135,146.996C84.461,146.996 81.476,148.313 79.181,150.946C76.885,153.58 75.737,157.746 75.737,163.446C75.737,169.226 76.844,173.426 79.059,176.046C81.274,178.666 84.164,179.976 87.729,179.976C90.593,179.976 92.983,179.098 94.901,177.342C96.818,175.587 98.034,172.886 98.547,169.239Z" style="fill:rgb(53,158,251);fill-rule:nonzero;"/>
        </g>
        <g transform="matrix(1.44619,0,0,1.44619,-63.8833,-77.5455)">
            <path d="M67.553,172.156L74.764,171.022C75.169,173.912 76.297,176.127 78.147,177.667C79.998,179.206 82.584,179.976 85.906,179.976C89.256,179.976 91.74,179.294 93.361,177.93C94.982,176.566 95.792,174.966 95.792,173.129C95.792,171.481 95.076,170.185 93.645,169.239C92.645,168.591 90.16,167.767 86.19,166.768C80.842,165.417 77.135,164.249 75.068,163.263C73.002,162.277 71.435,160.913 70.368,159.171C69.301,157.429 68.768,155.504 68.768,153.398C68.768,151.48 69.207,149.704 70.085,148.07C70.963,146.436 72.158,145.078 73.67,143.998C74.805,143.161 76.351,142.452 78.309,141.871C80.268,141.29 82.368,141 84.61,141C87.986,141 90.95,141.486 93.503,142.458C96.055,143.431 97.939,144.747 99.155,146.409C100.37,148.07 101.208,150.291 101.667,153.073L94.536,154.046C94.212,151.831 93.273,150.102 91.72,148.86C90.167,147.617 87.973,146.996 85.136,146.996C81.787,146.996 79.397,147.55 77.965,148.657C76.534,149.765 75.818,151.061 75.818,152.547C75.818,153.492 76.115,154.343 76.709,155.099C77.303,155.883 78.235,156.531 79.505,157.044C80.234,157.314 82.381,157.935 85.947,158.908C91.106,160.285 94.705,161.413 96.744,162.291C98.784,163.169 100.384,164.445 101.545,166.12C102.707,167.794 103.288,169.874 103.288,172.359C103.288,174.79 102.578,177.079 101.16,179.226C99.742,181.374 97.696,183.035 95.022,184.21C92.348,185.385 89.323,185.972 85.947,185.972C80.356,185.972 76.095,184.811 73.164,182.488C70.233,180.165 68.363,176.721 67.553,172.156Z" style="fill:rgb(53,158,251);fill-rule:nonzero;"/>
        </g>
        <g transform="matrix(5.44298,0,0,1.32105,-494.267,23.6317)">
            <rect x="96.458" y="133.506" width="43.542" height="26.494" style="fill:rgb(53,158,251);"/>
        </g>
        <g transform="matrix(5.44298,0,0,1.32105,-494.267,-92.8793)">
            <path d="M140,133.506L117.953,123.295L96.458,133.506L96.458,160L140,160L140,133.506Z" style="fill:rgb(53,158,251);"/>
        </g>
    </g>
</svg>
